<?xml version="1.0" encoding="UTF-8" standalone="no"?>
<svg
   xmlns:dc="http://purl.org/dc/elements/1.1/"
   xmlns:cc="http://creativecommons.org/ns#"
   xmlns:rdf="http://www.w3.org/1999/02/22-rdf-syntax-ns#"
   xmlns:svg="http://www.w3.org/2000/svg"
   xmlns="http://www.w3.org/2000/svg"
   xmlns:sodipodi="http://sodipodi.sourceforge.net/DTD/sodipodi-0.dtd"
   xmlns:inkscape="http://www.inkscape.org/namespaces/inkscape"
   width="734mm"
   height="300mm"
   viewBox="0 0 734 300"
   version="1.1"
   id="svg8"
   inkscape:version="1.0 (4035a4fb49, 2020-05-01)"
   sodipodi:docname="logo3_schrift.svg"
   inkscape:export-filename="/home/jonas/Schreibtisch/logo3_1.png"
   inkscape:export-xdpi="96"
   inkscape:export-ydpi="96">
  <defs
     id="defs2">
    <rect
       x="286.77747"
       y="33.390697"
       width="564.08466"
       height="95.048737"
       id="rect917" />
    <rect
       id="rect2306"
       height="115.14931"
       width="587.05597"
       y="88.006401"
       x="282.89294" />
  </defs>
  <sodipodi:namedview
     id="base"
     pagecolor="#263e55"
     bordercolor="#666666"
     borderopacity="1.0"
     inkscape:pageopacity="1"
     inkscape:pageshadow="2"
     inkscape:zoom="0.24552902"
     inkscape:cx="991.84929"
     inkscape:cy="607.92389"
     inkscape:document-units="mm"
     inkscape:current-layer="layer1"
     inkscape:document-rotation="0"
     showgrid="false"
     inkscape:snap-global="false"
     inkscape:snap-bbox="true"
     inkscape:bbox-paths="false"
     inkscape:bbox-nodes="false"
     inkscape:snap-bbox-edge-midpoints="false"
     inkscape:snap-bbox-midpoints="false"
     inkscape:object-paths="true"
     inkscape:snap-intersection-paths="true"
     inkscape:snap-smooth-nodes="true"
     inkscape:snap-midpoints="true"
     inkscape:snap-object-midpoints="false"
     inkscape:snap-center="false"
     inkscape:snap-text-baseline="false"
     inkscape:snap-page="true"
     inkscape:window-width="1880"
     inkscape:window-height="1026"
     inkscape:window-x="40"
     inkscape:window-y="26"
     inkscape:window-maximized="1"
     units="mm"
     inkscape:pagecheckerboard="false"
     showguides="true"
     inkscape:guide-bbox="true">
    <sodipodi:guide
       position="25.907384,47.783991"
       orientation="0,-1"
       id="guide925" />
    <sodipodi:guide
       position="-15.239638,252.75712"
       orientation="0,-1"
       id="guide927" />
    <sodipodi:guide
       position="278.33184,117.86672"
       orientation="1,0"
       id="guide929" />
    <sodipodi:guide
       position="666.30388,117.89861"
       orientation="1,0"
       id="guide931" />
  </sodipodi:namedview>
  <metadata
     id="metadata5">
    <rdf:RDF>
      <cc:Work
         rdf:about="">
        <dc:format>image/svg+xml</dc:format>
        <dc:type
           rdf:resource="http://purl.org/dc/dcmitype/StillImage" />
        <dc:title></dc:title>
      </cc:Work>
    </rdf:RDF>
  </metadata>
  <g
     inkscape:label="Ebene 1"
     inkscape:groupmode="layer"
     id="layer1"
     style="display:inline">
    <g
       transform="translate(-8.2162981,0.22364432)"
       id="g938">
      <path
         d="m 149.7625,48.711023 a 71.087204,71.087204 0 0 0 -71.012202,71.092817 71.087204,71.087204 0 0 0 4.238501,24.17268 c 11.643608,36.60355 47.516061,90.21878 66.848631,90.21879 19.33004,0 55.19554,-53.60112 66.84398,-90.20432 a 71.087204,71.087204 0 0 0 4.24315,-24.19284 h -0.83819 c -5.3e-4,-0.004 -10e-4,-0.007 -0.002,-0.0108 h 0.84026 a 71.087204,71.087204 0 0 0 -1.11518,-12.52999 c -0.39074,0.43013 -0.78052,0.8612 -1.17408,1.2883 -1.19238,2.00583 -4.68593,2.03314 -5.66581,-0.18346 -1.17004,-4.43189 -2.51296,-8.855529 -4.57801,-12.965089 -8.24292,8.972059 -16.00482,18.392989 -23.63732,27.902169 a 35.091825,35.091825 0 0 1 -34.91668,31.59083 35.091825,35.091825 0 0 1 -35.09191,-35.09192 35.091825,35.091825 0 0 1 35.05884,-35.091393 35.091825,35.091825 0 0 1 0.0331,0 35.091825,35.091825 0 0 1 25.38398,10.861874 c 7.02586,-5.589482 14.34865,-10.799252 22.01158,-15.487947 -2.6781,-2.713566 -5.55572,-5.080915 -8.65426,-7.335985 -1.92127,-0.80727 -2.81693,-3.608504 -1.34772,-5.220354 2.00881,-1.497436 4.29536,-2.578602 6.59443,-3.569292 a 71.087204,71.087204 0 0 0 -43.99628,-15.24403 71.087204,71.087204 0 0 0 -0.0667,0 z"
         style="fill:#bbe441;fill-opacity:1;fill-rule:evenodd;stroke-width:0.264583"
         id="path12" />
      <path
         d="m 232.97861,59.608033 c -11.42514,-0.07587 -30.05939,3.198625 -42.36951,10.033495 4.24299,2.990011 8.55523,6.73836 12.45195,11.230321 -32.21957,19.010102 -46.37838,37.966251 -49.82641,38.047291 -3.66138,0.0861 -12.41317,-20.747549 -15.63522,-20.498489 -3.22411,0.24921 -18.29577,12.062049 -18.19424,18.427299 0.15032,9.41933 22.94282,32.97126 34.1514,33.03416 9.03293,0.0507 25.44708,-28.72364 55.58111,-60.753401 3.03981,4.940472 5.48584,10.516332 6.94737,16.719911 16.28403,-17.327844 29.75211,-39.602646 26.73377,-44.079997 -0.94323,-1.399172 -4.64698,-2.126107 -9.84022,-2.16059 z"
         style="mix-blend-mode:normal;fill:#f6fbe9;fill-opacity:1;stroke:none;stroke-width:1;stroke-opacity:0"
         id="rect86" />
      <path
         d="m 175.5898,221.74608 c -0.89714,0.95769 -1.81324,1.89833 -2.74351,2.82618 10.71442,0.67828 20.30419,1.81484 28.06754,3.28507 6.48227,1.22762 11.70447,2.69695 15.18202,4.25401 1.73878,0.77854 3.03444,1.58499 3.81217,2.30477 0.77774,0.71977 0.99064,1.25044 0.99064,1.66191 0,0.41147 -0.2129,0.94265 -0.99064,1.66243 -0.77773,0.71978 -2.07339,1.52779 -3.81217,2.30632 -3.47755,1.55707 -8.69975,3.02432 -15.18202,4.25194 -12.96454,2.45525 -30.99808,3.99045 -50.91368,3.99045 -19.91559,0 -37.94967,-1.5352 -50.914209,-3.99045 -6.48227,-1.22762 -11.703949,-2.69487 -15.181503,-4.25194 -1.738775,-0.77853 -3.037017,-1.58654 -3.814754,-2.30632 -0.777738,-0.71978 -0.988052,-1.25096 -0.988052,-1.66243 0,-0.41147 0.210314,-0.94214 0.988052,-1.66191 0.777737,-0.71978 2.075979,-1.52623 3.814754,-2.30477 3.477554,-1.55706 8.699233,-3.02639 15.181503,-4.25401 7.694439,-1.45719 17.183989,-2.58609 27.783319,-3.26646 -0.92518,-0.92635 -1.83177,-1.87001 -2.72697,-2.82464 -9.67707,0.69786 -18.3845,1.77468 -25.614972,3.144 -6.619322,1.25358 -12.000081,2.73912 -15.849679,4.46277 -1.924798,0.86183 -3.473947,1.77637 -4.625041,2.84169 -1.151093,1.06532 -1.950783,2.38171 -1.950783,3.86333 0,1.48162 0.79969,2.80009 1.950783,3.8654 1.151094,1.06532 2.700243,1.97986 4.625041,2.84168 3.849598,1.72365 9.230357,3.20921 15.849679,4.46278 13.238642,2.50715 31.403712,4.0411 51.472832,4.0411 20.06911,0 38.23365,-1.53395 51.4723,-4.0411 6.61933,-1.25357 12.00008,-2.73913 15.84968,-4.46278 1.9248,-0.86182 3.47394,-1.77636 4.62504,-2.84168 1.15109,-1.06531 1.95131,-2.38378 1.95131,-3.8654 0,-1.48162 -0.80022,-2.79801 -1.95131,-3.86333 -1.1511,-1.06532 -2.70024,-1.97986 -4.62504,-2.84169 -3.8496,-1.72365 -9.23035,-3.20919 -15.84968,-4.46277 -7.29751,-1.38202 -16.0976,-2.46697 -25.88265,-3.16415 z"
         style="color:#000000;font-style:normal;font-variant:normal;font-weight:normal;font-stretch:normal;font-size:medium;line-height:normal;font-family:sans-serif;font-variant-ligatures:normal;font-variant-position:normal;font-variant-caps:normal;font-variant-numeric:normal;font-variant-alternates:normal;font-variant-east-asian:normal;font-feature-settings:normal;font-variation-settings:normal;text-indent:0;text-align:start;text-decoration:none;text-decoration-line:none;text-decoration-style:solid;text-decoration-color:#000000;letter-spacing:normal;word-spacing:normal;text-transform:none;writing-mode:lr-tb;direction:ltr;text-orientation:mixed;dominant-baseline:auto;baseline-shift:baseline;text-anchor:start;white-space:normal;shape-padding:0;shape-margin:0;inline-size:0;clip-rule:nonzero;display:inline;overflow:visible;visibility:visible;isolation:auto;mix-blend-mode:normal;color-interpolation:sRGB;color-interpolation-filters:linearRGB;solid-color:#000000;solid-opacity:1;vector-effect:none;fill:#f6fbe9;fill-opacity:1;fill-rule:nonzero;stroke:none;stroke-width:3;stroke-linecap:butt;stroke-linejoin:miter;stroke-miterlimit:3.8;stroke-dasharray:none;stroke-dashoffset:0;stroke-opacity:1;color-rendering:auto;image-rendering:auto;shape-rendering:auto;text-rendering:auto;enable-background:accumulate;stop-color:#000000"
         id="path886" />
      <text
         xml:space="preserve"
         style="font-style:normal;font-variant:normal;font-weight:bold;font-stretch:normal;font-size:95.25px;line-height:1.25;font-family:'Right Hand';-inkscape-font-specification:'Right Hand, Bold';font-variant-ligatures:normal;font-variant-caps:normal;font-variant-numeric:normal;font-variant-east-asian:normal;letter-spacing:0px;word-spacing:0px;fill:#f6fbe9;fill-opacity:1;stroke:none;stroke-width:0.264583"
         x="282.83234"
         y="245.99699"
         id="text2312"><tspan
           sodipodi:role="line"
           id="tspan2310"
           x="282.83234"
           y="245.99699"
           style="font-style:normal;font-variant:normal;font-weight:bold;font-stretch:normal;font-size:95.25px;font-family:'Right Hand';-inkscape-font-specification:'Right Hand, Bold';font-variant-ligatures:normal;font-variant-caps:normal;font-variant-numeric:normal;font-variant-east-asian:normal;fill:#f6fbe9;fill-opacity:1;stroke-width:0.264583">to go out</tspan></text>
      <text
         id="text923"
         y="156.95503"
         x="280.04367"
         style="font-style:normal;font-variant:normal;font-weight:bold;font-stretch:normal;font-size:156.633px;line-height:1.25;font-family:'Right Hand';-inkscape-font-specification:'Right Hand, Bold';font-variant-ligatures:normal;font-variant-caps:normal;font-variant-numeric:normal;font-variant-east-asian:normal;letter-spacing:0px;word-spacing:0px;fill:#bbe441;fill-opacity:1;stroke:none;stroke-width:0.264583"
         xml:space="preserve"><tspan
           style="font-style:normal;font-variant:normal;font-weight:bold;font-stretch:normal;font-size:156.633px;font-family:'Right Hand';-inkscape-font-specification:'Right Hand, Bold';font-variant-ligatures:normal;font-variant-caps:normal;font-variant-numeric:normal;font-variant-east-asian:normal;fill:#bbe441;fill-opacity:1;stroke-width:0.264583"
           y="156.95503"
           x="280.04367"
           id="tspan921"
           sodipodi:role="line">ready</tspan></text>
    </g>
    <path
       sodipodi:arc-type="slice"
       sodipodi:end="6.2830301"
       sodipodi:start="0"
       sodipodi:ry="71.087204"
       sodipodi:rx="71.087204"
       sodipodi:cy="125.11898"
       sodipodi:cx="-174.30029"
       sodipodi:type="arc"
       id="path892"
       style="fill:#00ff00;fill-rule:evenodd;stroke-width:0.264583"
       d="m -103.21309,125.11898 a 71.087204,71.087204 0 0 1 -71.08444,71.0872 71.087204,71.087204 0 0 1 -71.08997,-71.08168 71.087204,71.087204 0 0 1 71.07893,-71.092723 71.087204,71.087204 0 0 1 71.09548,71.076173 l -71.0872,0.011 z" />
    <path
       inkscape:transform-center-y="-37.849726"
       inkscape:transform-center-x="1.041856"
       inkscape:randomized="0"
       inkscape:rounded="0.18880897"
       inkscape:flatsided="true"
       sodipodi:arg2="2.617994"
       sodipodi:arg1="1.5707964"
       sodipodi:r2="77.511002"
       sodipodi:r1="79.305191"
       sodipodi:cy="160.21078"
       sodipodi:cx="-174.30029"
       sodipodi:sides="3"
       id="path894"
       style="fill:#00ff00;stroke-width:0.264583"
       sodipodi:type="star"
       d="m -174.3003,239.51598 c -25.93492,-1e-5 -81.64776,-96.4975 -68.6803,-118.9578 12.96746,-22.460292 124.39316,-22.460284 137.36062,1e-5 12.967457,22.4603 -42.7454,118.95779 -68.68032,118.95779 z" />
    <circle
       r="35.091824"
       cy="125.11898"
       cx="-174.30029"
       id="circle896"
       style="opacity:1;fill:#ffffff;fill-opacity:1;fill-rule:evenodd;stroke-width:0.232804" />
    <path
       sodipodi:nodetypes="ssczss"
       d="m -186.53844,103.74112 c 3.22205,-0.24905 11.97387,20.58473 15.63525,20.49868 4.38265,-0.10301 35.10596,-36.61345 93.484413,-64.268067 -56.053893,47.509277 -81.953893,95.293997 -93.162473,95.231097 -11.20858,-0.0629 -34.00126,-23.6149 -34.15158,-33.03423 -0.10153,-6.36525 14.97028,-18.17827 18.19439,-18.42748 z"
       style="opacity:1;fill:#008000;stroke:#fffffe;stroke-width:3;stroke-miterlimit:4;stroke-dasharray:none;stroke-opacity:1"
       id="path898" />
    <g
       transform="translate(-335.46974,10.266672)"
       style="opacity:1;stroke:#fffffe;stroke-width:3;stroke-miterlimit:4;stroke-dasharray:none;stroke-opacity:1"
       inkscape:transform-center-x="3.2856048e-06"
       id="g902">
      <path
         sodipodi:nodetypes="czcc"
         id="path900"
         d="m 225.68836,107.8183 c 16.28403,-17.327844 36.62905,-57.343433 33.61071,-61.820783 -3.01834,-4.47735 -47.59853,6.047989 -65.50416,15.989619 9.26181,8.159475 25.22323,29.287433 31.89345,45.831164 z"
         style="color:#000000;font-style:normal;font-variant:normal;font-weight:normal;font-stretch:normal;font-size:medium;line-height:normal;font-family:sans-serif;font-variant-ligatures:normal;font-variant-position:normal;font-variant-caps:normal;font-variant-numeric:normal;font-variant-alternates:normal;font-variant-east-asian:normal;font-feature-settings:normal;font-variation-settings:normal;text-indent:0;text-align:start;text-decoration:none;text-decoration-line:none;text-decoration-style:solid;text-decoration-color:#000000;letter-spacing:normal;word-spacing:normal;text-transform:none;writing-mode:lr-tb;direction:ltr;text-orientation:mixed;dominant-baseline:auto;baseline-shift:baseline;text-anchor:start;white-space:normal;shape-padding:0;shape-margin:0;inline-size:0;clip-rule:nonzero;display:inline;overflow:visible;visibility:visible;isolation:auto;mix-blend-mode:normal;color-interpolation:sRGB;color-interpolation-filters:linearRGB;solid-color:#000000;solid-opacity:1;vector-effect:none;fill:#008000;fill-opacity:1;fill-rule:nonzero;stroke:#fffffe;stroke-width:3;stroke-linecap:butt;stroke-linejoin:miter;stroke-miterlimit:4;stroke-dasharray:none;stroke-dashoffset:0;stroke-opacity:1;color-rendering:auto;image-rendering:auto;shape-rendering:auto;text-rendering:auto;enable-background:accumulate;stop-color:#000000;stop-opacity:1" />
    </g>
    <path
       sodipodi:open="true"
       d="m -117.46402,95.122589 a 5.8715286,5.7231145 0 0 1 -5.42794,5.706761 5.8715286,5.7231145 0 0 1 -6.24809,-4.84449 5.8715286,5.7231145 0 0 1 4.48388,-6.438743 5.8715286,5.7231145 0 0 1 6.92558,3.871615"
       sodipodi:arc-type="arc"
       sodipodi:end="5.9807041"
       sodipodi:start="0"
       sodipodi:ry="5.7231145"
       sodipodi:rx="5.8715286"
       sodipodi:cy="95.122589"
       sodipodi:cx="-123.33555"
       sodipodi:type="arc"
       id="path904"
       style="opacity:1;fill:#008000;stroke:none;stroke-width:5.54692;stroke-miterlimit:4;stroke-dasharray:none;stroke-opacity:1" />
    <path
       d="m -174.30176,-177.19527 a 71.087204,71.087204 0 0 0 -71.0122,71.09282 71.087204,71.087204 0 0 0 4.2385,24.172687 c 11.64361,36.603542 47.51607,90.2187746 66.84864,90.2187825 19.33004,0 55.19553,-53.6011115 66.84398,-90.2043125 a 71.087204,71.087204 0 0 0 4.24315,-24.192837 h -0.83819 c -6.5e-4,-0.004 -0.001,-0.007 -0.002,-0.0109 h 0.84026 a 71.087204,71.087204 0 0 0 -71.0954,-71.07628 71.087204,71.087204 0 0 0 -0.0667,0 z m 0.0419,35.99574 a 35.091825,35.091825 0 0 1 0.0331,0 35.091825,35.091825 0 0 1 35.09191,35.0914 35.091825,35.091825 0 0 1 -35.09191,35.091913 35.091825,35.091825 0 0 1 -35.09192,-35.091913 35.091825,35.091825 0 0 1 35.05884,-35.0914 z"
       style="fill:#00ff00;fill-rule:evenodd;stroke-width:0.264583"
       id="path3568" />
    <path
       sodipodi:nodetypes="ssczss"
       d="m -186.46486,-127.48574 c 3.22205,-0.24905 11.97387,20.58473 15.63525,20.49868 4.38265,-0.10301 26.06125,-30.70098 80.150251,-53.14319 -46.052191,39.84994 -68.619731,84.16912 -79.828311,84.10622 -11.20858,-0.0629 -34.00126,-23.614899 -34.15158,-33.03423 -0.10153,-6.36525 14.97028,-18.17826 18.19439,-18.42748 z"
       style="opacity:1;mix-blend-mode:multiply;fill:#008000;fill-opacity:1;stroke:#ffffff;stroke-opacity:0"
       id="path3570" />
    <path
       style="color:#000000;font-style:normal;font-variant:normal;font-weight:normal;font-stretch:normal;font-size:medium;line-height:normal;font-family:sans-serif;font-variant-ligatures:normal;font-variant-position:normal;font-variant-caps:normal;font-variant-numeric:normal;font-variant-alternates:normal;font-variant-east-asian:normal;font-feature-settings:normal;font-variation-settings:normal;text-indent:0;text-align:start;text-decoration:none;text-decoration-line:none;text-decoration-style:solid;text-decoration-color:#000000;letter-spacing:normal;word-spacing:normal;text-transform:none;writing-mode:lr-tb;direction:ltr;text-orientation:mixed;dominant-baseline:auto;baseline-shift:baseline;text-anchor:start;white-space:normal;shape-padding:0;shape-margin:0;inline-size:0;clip-rule:nonzero;display:inline;overflow:visible;visibility:visible;isolation:auto;mix-blend-mode:normal;color-interpolation:sRGB;color-interpolation-filters:linearRGB;solid-color:#000000;solid-opacity:1;vector-effect:none;fill:#008000;fill-opacity:1;fill-rule:nonzero;stroke:none;stroke-width:3;stroke-linecap:butt;stroke-linejoin:miter;stroke-miterlimit:4;stroke-dasharray:none;stroke-dashoffset:0;stroke-opacity:1;color-rendering:auto;image-rendering:auto;shape-rendering:auto;text-rendering:auto;enable-background:accumulate;stop-color:#000000"
       d="m -107.97913,-120.05754 c 16.28403,-17.32785 29.7519,-39.60284 26.73356,-44.08019 -3.01834,-4.47735 -34.3042,-2.06854 -52.20983,7.87309 10.55952,7.44124 21.55649,19.56932 25.47627,36.2071 z"
       id="path3572"
       sodipodi:nodetypes="czcc" />
    <text
       style="font-style:normal;font-weight:normal;font-size:10.5833px;line-height:1.25;font-family:sans-serif;letter-spacing:0px;word-spacing:0px;white-space:pre;shape-inside:url(#rect2306);fill:#000000;fill-opacity:1;stroke:none;"
       id="text2304"
       xml:space="preserve" />
    <text
       xml:space="preserve"
       id="text915"
       style="font-style:normal;font-weight:normal;font-size:10.5833px;line-height:1.25;font-family:sans-serif;letter-spacing:0px;word-spacing:0px;white-space:pre;shape-inside:url(#rect917);fill:#000000;fill-opacity:1;stroke:none;" />
  </g>
</svg>
