<?xml version="1.0" encoding="UTF-8" standalone="no"?>
<svg
   xmlns:dc="http://purl.org/dc/elements/1.1/"
   xmlns:cc="http://creativecommons.org/ns#"
   xmlns:rdf="http://www.w3.org/1999/02/22-rdf-syntax-ns#"
   xmlns:svg="http://www.w3.org/2000/svg"
   xmlns="http://www.w3.org/2000/svg"
   xmlns:sodipodi="http://sodipodi.sourceforge.net/DTD/sodipodi-0.dtd"
   xmlns:inkscape="http://www.inkscape.org/namespaces/inkscape"
   inkscape:export-ydpi="96"
   inkscape:export-xdpi="96"
   inkscape:export-filename="/home/jonas/EigeneProgramme/Git/readytogoout/branding/png/logo_weiß.png"
   sodipodi:docname="logo_weiß.svg"
   inkscape:version="1.0 (4035a4fb49, 2020-05-01)"
   id="svg8"
   version="1.1"
   viewBox="0 0 250 250"
   height="250mm"
   width="250mm">
  <defs
     id="defs2" />
  <sodipodi:namedview
     inkscape:pagecheckerboard="false"
     units="mm"
     inkscape:window-maximized="1"
     inkscape:window-y="26"
     inkscape:window-x="40"
     inkscape:window-height="1026"
     inkscape:window-width="1880"
     inkscape:snap-page="true"
     inkscape:snap-text-baseline="false"
     inkscape:snap-center="false"
     inkscape:snap-object-midpoints="false"
     inkscape:snap-midpoints="true"
     inkscape:snap-smooth-nodes="true"
     inkscape:snap-intersection-paths="true"
     inkscape:object-paths="true"
     inkscape:snap-bbox-midpoints="false"
     inkscape:snap-bbox-edge-midpoints="false"
     inkscape:bbox-nodes="false"
     inkscape:bbox-paths="false"
     inkscape:snap-bbox="true"
     inkscape:snap-global="false"
     showgrid="false"
     inkscape:document-rotation="0"
     inkscape:current-layer="layer1"
     inkscape:document-units="mm"
     inkscape:cy="358.26091"
     inkscape:cx="310.21692"
     inkscape:zoom="0.49105804"
     inkscape:pageshadow="2"
     inkscape:pageopacity="0"
     borderopacity="1.0"
     bordercolor="#666666"
     pagecolor="#263e55"
     id="base" />
  <metadata
     id="metadata5">
    <rdf:RDF>
      <cc:Work
         rdf:about="">
        <dc:format>image/svg+xml</dc:format>
        <dc:type
           rdf:resource="http://purl.org/dc/dcmitype/StillImage" />
        <dc:title></dc:title>
      </cc:Work>
    </rdf:RDF>
  </metadata>
  <g
     style="display:inline"
     id="layer1"
     inkscape:groupmode="layer"
     inkscape:label="Ebene 1">
    <path
       d="m -103.21309,125.11898 a 71.087204,71.087204 0 0 1 -71.08444,71.0872 71.087204,71.087204 0 0 1 -71.08997,-71.08168 71.087204,71.087204 0 0 1 71.07893,-71.092723 71.087204,71.087204 0 0 1 71.09548,71.076173 l -71.0872,0.011 z"
       style="fill:#00ff00;fill-rule:evenodd;stroke-width:0.264583"
       id="path892"
       sodipodi:type="arc"
       sodipodi:cx="-174.30029"
       sodipodi:cy="125.11898"
       sodipodi:rx="71.087204"
       sodipodi:ry="71.087204"
       sodipodi:start="0"
       sodipodi:end="6.2830301"
       sodipodi:arc-type="slice" />
    <path
       d="m -174.3003,239.51598 c -25.93492,-1e-5 -81.64776,-96.4975 -68.6803,-118.9578 12.96746,-22.460292 124.39316,-22.460284 137.36062,1e-5 12.967457,22.4603 -42.7454,118.95779 -68.68032,118.95779 z"
       sodipodi:type="star"
       style="fill:#00ff00;stroke-width:0.264583"
       id="path894"
       sodipodi:sides="3"
       sodipodi:cx="-174.30029"
       sodipodi:cy="160.21078"
       sodipodi:r1="79.305191"
       sodipodi:r2="77.511002"
       sodipodi:arg1="1.5707964"
       sodipodi:arg2="2.617994"
       inkscape:flatsided="true"
       inkscape:rounded="0.18880897"
       inkscape:randomized="0"
       inkscape:transform-center-x="1.041856"
       inkscape:transform-center-y="-37.849726" />
    <circle
       style="opacity:1;fill:#ffffff;fill-opacity:1;fill-rule:evenodd;stroke-width:0.232804"
       id="circle896"
       cx="-174.30029"
       cy="125.11898"
       r="35.091824" />
    <path
       id="path898"
       style="opacity:1;fill:#008000;stroke:#fffffe;stroke-width:3;stroke-miterlimit:4;stroke-dasharray:none;stroke-opacity:1"
       d="m -186.53844,103.74112 c 3.22205,-0.24905 11.97387,20.58473 15.63525,20.49868 4.38265,-0.10301 35.10596,-36.61345 93.484413,-64.268067 -56.053893,47.509277 -81.953893,95.293997 -93.162473,95.231097 -11.20858,-0.0629 -34.00126,-23.6149 -34.15158,-33.03423 -0.10153,-6.36525 14.97028,-18.17827 18.19439,-18.42748 z"
       sodipodi:nodetypes="ssczss" />
    <g
       id="g902"
       inkscape:transform-center-x="3.2856048e-06"
       style="opacity:1;stroke:#fffffe;stroke-width:3;stroke-miterlimit:4;stroke-dasharray:none;stroke-opacity:1"
       transform="translate(-335.46974,10.266672)">
      <path
         style="color:#000000;font-style:normal;font-variant:normal;font-weight:normal;font-stretch:normal;font-size:medium;line-height:normal;font-family:sans-serif;font-variant-ligatures:normal;font-variant-position:normal;font-variant-caps:normal;font-variant-numeric:normal;font-variant-alternates:normal;font-variant-east-asian:normal;font-feature-settings:normal;font-variation-settings:normal;text-indent:0;text-align:start;text-decoration:none;text-decoration-line:none;text-decoration-style:solid;text-decoration-color:#000000;letter-spacing:normal;word-spacing:normal;text-transform:none;writing-mode:lr-tb;direction:ltr;text-orientation:mixed;dominant-baseline:auto;baseline-shift:baseline;text-anchor:start;white-space:normal;shape-padding:0;shape-margin:0;inline-size:0;clip-rule:nonzero;display:inline;overflow:visible;visibility:visible;isolation:auto;mix-blend-mode:normal;color-interpolation:sRGB;color-interpolation-filters:linearRGB;solid-color:#000000;solid-opacity:1;vector-effect:none;fill:#008000;fill-opacity:1;fill-rule:nonzero;stroke:#fffffe;stroke-width:3;stroke-linecap:butt;stroke-linejoin:miter;stroke-miterlimit:4;stroke-dasharray:none;stroke-dashoffset:0;stroke-opacity:1;color-rendering:auto;image-rendering:auto;shape-rendering:auto;text-rendering:auto;enable-background:accumulate;stop-color:#000000;stop-opacity:1"
         d="m 225.68836,107.8183 c 16.28403,-17.327844 36.62905,-57.343433 33.61071,-61.820783 -3.01834,-4.47735 -47.59853,6.047989 -65.50416,15.989619 9.26181,8.159475 25.22323,29.287433 31.89345,45.831164 z"
         id="path900"
         sodipodi:nodetypes="czcc" />
    </g>
    <path
       style="opacity:1;fill:#008000;stroke:none;stroke-width:5.54692;stroke-miterlimit:4;stroke-dasharray:none;stroke-opacity:1"
       id="path904"
       sodipodi:type="arc"
       sodipodi:cx="-123.33555"
       sodipodi:cy="95.122589"
       sodipodi:rx="5.8715286"
       sodipodi:ry="5.7231145"
       sodipodi:start="0"
       sodipodi:end="5.9807041"
       sodipodi:arc-type="arc"
       d="m -117.46402,95.122589 a 5.8715286,5.7231145 0 0 1 -5.42794,5.706761 5.8715286,5.7231145 0 0 1 -6.24809,-4.84449 5.8715286,5.7231145 0 0 1 4.48388,-6.438743 5.8715286,5.7231145 0 0 1 6.92558,3.871615"
       sodipodi:open="true" />
    <path
       id="path3568"
       style="fill:#00ff00;fill-rule:evenodd;stroke-width:0.264583"
       d="m -174.30176,-177.19527 a 71.087204,71.087204 0 0 0 -71.0122,71.09282 71.087204,71.087204 0 0 0 4.2385,24.172687 c 11.64361,36.603542 47.51607,90.2187746 66.84864,90.2187825 19.33004,0 55.19553,-53.6011115 66.84398,-90.2043125 a 71.087204,71.087204 0 0 0 4.24315,-24.192837 h -0.83819 c -6.5e-4,-0.004 -0.001,-0.007 -0.002,-0.0109 h 0.84026 a 71.087204,71.087204 0 0 0 -71.0954,-71.07628 71.087204,71.087204 0 0 0 -0.0667,0 z m 0.0419,35.99574 a 35.091825,35.091825 0 0 1 0.0331,0 35.091825,35.091825 0 0 1 35.09191,35.0914 35.091825,35.091825 0 0 1 -35.09191,35.091913 35.091825,35.091825 0 0 1 -35.09192,-35.091913 35.091825,35.091825 0 0 1 35.05884,-35.0914 z" />
    <path
       id="path3570"
       style="opacity:1;mix-blend-mode:multiply;fill:#008000;fill-opacity:1;stroke:#ffffff;stroke-opacity:0"
       d="m -186.46486,-127.48574 c 3.22205,-0.24905 11.97387,20.58473 15.63525,20.49868 4.38265,-0.10301 26.06125,-30.70098 80.150251,-53.14319 -46.052191,39.84994 -68.619731,84.16912 -79.828311,84.10622 -11.20858,-0.0629 -34.00126,-23.614899 -34.15158,-33.03423 -0.10153,-6.36525 14.97028,-18.17826 18.19439,-18.42748 z"
       sodipodi:nodetypes="ssczss" />
    <path
       sodipodi:nodetypes="czcc"
       id="path3572"
       d="m -107.97913,-120.05754 c 16.28403,-17.32785 29.7519,-39.60284 26.73356,-44.08019 -3.01834,-4.47735 -34.3042,-2.06854 -52.20983,7.87309 10.55952,7.44124 21.55649,19.56932 25.47627,36.2071 z"
       style="color:#000000;font-style:normal;font-variant:normal;font-weight:normal;font-stretch:normal;font-size:medium;line-height:normal;font-family:sans-serif;font-variant-ligatures:normal;font-variant-position:normal;font-variant-caps:normal;font-variant-numeric:normal;font-variant-alternates:normal;font-variant-east-asian:normal;font-feature-settings:normal;font-variation-settings:normal;text-indent:0;text-align:start;text-decoration:none;text-decoration-line:none;text-decoration-style:solid;text-decoration-color:#000000;letter-spacing:normal;word-spacing:normal;text-transform:none;writing-mode:lr-tb;direction:ltr;text-orientation:mixed;dominant-baseline:auto;baseline-shift:baseline;text-anchor:start;white-space:normal;shape-padding:0;shape-margin:0;inline-size:0;clip-rule:nonzero;display:inline;overflow:visible;visibility:visible;isolation:auto;mix-blend-mode:normal;color-interpolation:sRGB;color-interpolation-filters:linearRGB;solid-color:#000000;solid-opacity:1;vector-effect:none;fill:#008000;fill-opacity:1;fill-rule:nonzero;stroke:none;stroke-width:3;stroke-linecap:butt;stroke-linejoin:miter;stroke-miterlimit:4;stroke-dasharray:none;stroke-dashoffset:0;stroke-opacity:1;color-rendering:auto;image-rendering:auto;shape-rendering:auto;text-rendering:auto;enable-background:accumulate;stop-color:#000000" />
    <path
       transform="scale(0.26458333)"
       d="M 472.1582 179.30469 A 268.67605 268.67605 0 0 0 203.76562 448.00195 A 268.67605 268.67605 0 0 0 219.78516 539.36328 C 263.79249 677.70741 399.37339 880.34762 472.44141 880.34766 C 545.49979 880.34766 681.05448 677.76077 725.08008 539.41797 A 268.67605 268.67605 0 0 0 741.11719 447.98047 L 737.94922 447.98047 C 737.94722 447.96535 737.94519 447.95382 737.94141 447.93945 L 741.11719 447.93945 A 268.67605 268.67605 0 0 0 736.90234 400.58203 C 735.42553 402.20772 733.95231 403.83694 732.46484 405.45117 C 727.95821 413.03226 714.75426 413.13551 711.05078 404.75781 C 706.62858 388.00736 701.55296 371.28805 693.74805 355.75586 C 662.5937 389.66599 633.2574 425.27264 604.41016 461.21289 A 132.63052 132.63052 0 0 1 472.44141 580.61133 A 132.63052 132.63052 0 0 1 339.81055 447.98047 A 132.63052 132.63052 0 0 1 472.31641 315.35156 A 132.63052 132.63052 0 0 1 472.44141 315.35156 A 132.63052 132.63052 0 0 1 568.38086 356.4043 C 594.93529 335.2787 622.61196 315.58824 651.57422 297.86719 C 641.45227 287.61119 630.57625 278.66372 618.86523 270.14062 C 611.60374 267.08953 608.21856 256.50219 613.77148 250.41016 C 621.36384 244.75056 630.00591 240.66426 638.69531 236.91992 A 268.67605 268.67605 0 0 0 472.41016 179.30469 A 268.67605 268.67605 0 0 0 472.1582 179.30469 z M 786.67578 220.49023 C 743.49415 220.20348 673.0655 232.57953 626.53906 258.41211 C 642.57556 269.71294 658.8738 283.87993 673.60156 300.85742 C 551.82681 372.70663 498.31314 444.35191 485.28125 444.6582 C 471.44296 444.98362 438.36533 366.24226 426.1875 367.18359 C 414.00189 368.12549 357.03814 412.7724 357.42188 436.83008 C 357.99001 472.4307 444.13487 561.44586 486.49805 561.68359 C 520.63822 561.87522 582.67596 453.12184 696.56836 332.06445 C 708.05741 350.7371 717.30228 371.81123 722.82617 395.25781 C 784.37211 329.76676 835.27509 245.57852 823.86719 228.65625 C 820.30222 223.36804 806.30377 220.62056 786.67578 220.49023 z "
       style="fill:#f6fbe9;fill-opacity:1;fill-rule:evenodd;stroke-width:0.999999"
       id="path12" />
  </g>
</svg>
