<?xml version="1.0" encoding="UTF-8" standalone="no"?>
<svg
   xmlns:dc="http://purl.org/dc/elements/1.1/"
   xmlns:cc="http://creativecommons.org/ns#"
   xmlns:rdf="http://www.w3.org/1999/02/22-rdf-syntax-ns#"
   xmlns:svg="http://www.w3.org/2000/svg"
   xmlns="http://www.w3.org/2000/svg"
   xmlns:sodipodi="http://sodipodi.sourceforge.net/DTD/sodipodi-0.dtd"
   xmlns:inkscape="http://www.inkscape.org/namespaces/inkscape"
   width="250mm"
   height="250mm"
   viewBox="0 0 250 250"
   version="1.1"
   id="svg8"
   inkscape:version="1.0 (4035a4fb49, 2020-05-01)"
   sodipodi:docname="logo_simpel_transparent.svg"
   inkscape:export-filename="/home/jonas/EigeneProgramme/Git/readytogoout/branding/png/logo_simpel_transparent.png"
   inkscape:export-xdpi="96"
   inkscape:export-ydpi="96">
  <defs
     id="defs2" />
  <sodipodi:namedview
     id="base"
     pagecolor="#263e55"
     bordercolor="#666666"
     borderopacity="1.0"
     inkscape:pageopacity="0"
     inkscape:pageshadow="2"
     inkscape:zoom="0.34723047"
     inkscape:cx="15.047222"
     inkscape:cy="157.83438"
     inkscape:document-units="mm"
     inkscape:current-layer="layer1"
     inkscape:document-rotation="0"
     showgrid="false"
     inkscape:snap-global="false"
     inkscape:snap-bbox="true"
     inkscape:bbox-paths="false"
     inkscape:bbox-nodes="false"
     inkscape:snap-bbox-edge-midpoints="false"
     inkscape:snap-bbox-midpoints="false"
     inkscape:object-paths="true"
     inkscape:snap-intersection-paths="true"
     inkscape:snap-smooth-nodes="true"
     inkscape:snap-midpoints="true"
     inkscape:snap-object-midpoints="false"
     inkscape:snap-center="false"
     inkscape:snap-text-baseline="false"
     inkscape:snap-page="true"
     inkscape:window-width="1880"
     inkscape:window-height="1026"
     inkscape:window-x="40"
     inkscape:window-y="26"
     inkscape:window-maximized="1"
     units="mm"
     inkscape:pagecheckerboard="false" />
  <metadata
     id="metadata5">
    <rdf:RDF>
      <cc:Work
         rdf:about="">
        <dc:format>image/svg+xml</dc:format>
        <dc:type
           rdf:resource="http://purl.org/dc/dcmitype/StillImage" />
        <dc:title></dc:title>
      </cc:Work>
    </rdf:RDF>
  </metadata>
  <g
     inkscape:label="Ebene 1"
     inkscape:groupmode="layer"
     id="layer1"
     style="display:inline">
    <path
       sodipodi:arc-type="slice"
       sodipodi:end="6.2830301"
       sodipodi:start="0"
       sodipodi:ry="71.087204"
       sodipodi:rx="71.087204"
       sodipodi:cy="125.11898"
       sodipodi:cx="-174.30029"
       sodipodi:type="arc"
       id="path892"
       style="fill:#00ff00;fill-rule:evenodd;stroke-width:0.264583"
       d="m -103.21309,125.11898 a 71.087204,71.087204 0 0 1 -71.08444,71.0872 71.087204,71.087204 0 0 1 -71.08997,-71.08168 71.087204,71.087204 0 0 1 71.07893,-71.092723 71.087204,71.087204 0 0 1 71.09548,71.076173 l -71.0872,0.011 z" />
    <path
       inkscape:transform-center-y="-37.849726"
       inkscape:transform-center-x="1.041856"
       inkscape:randomized="0"
       inkscape:rounded="0.18880897"
       inkscape:flatsided="true"
       sodipodi:arg2="2.617994"
       sodipodi:arg1="1.5707964"
       sodipodi:r2="77.511002"
       sodipodi:r1="79.305191"
       sodipodi:cy="160.21078"
       sodipodi:cx="-174.30029"
       sodipodi:sides="3"
       id="path894"
       style="fill:#00ff00;stroke-width:0.264583"
       sodipodi:type="star"
       d="m -174.3003,239.51598 c -25.93492,-1e-5 -81.64776,-96.4975 -68.6803,-118.9578 12.96746,-22.460292 124.39316,-22.460284 137.36062,1e-5 12.967457,22.4603 -42.7454,118.95779 -68.68032,118.95779 z" />
    <circle
       r="35.091824"
       cy="125.11898"
       cx="-174.30029"
       id="circle896"
       style="opacity:1;fill:#ffffff;fill-opacity:1;fill-rule:evenodd;stroke-width:0.232804" />
    <path
       sodipodi:nodetypes="ssczss"
       d="m -186.53844,103.74112 c 3.22205,-0.24905 11.97387,20.58473 15.63525,20.49868 4.38265,-0.10301 35.10596,-36.61345 93.484413,-64.268067 -56.053893,47.509277 -81.953893,95.293997 -93.162473,95.231097 -11.20858,-0.0629 -34.00126,-23.6149 -34.15158,-33.03423 -0.10153,-6.36525 14.97028,-18.17827 18.19439,-18.42748 z"
       style="opacity:1;fill:#008000;stroke:#fffffe;stroke-width:3;stroke-miterlimit:4;stroke-dasharray:none;stroke-opacity:1"
       id="path898" />
    <g
       transform="translate(-335.46974,10.266672)"
       style="opacity:1;stroke:#fffffe;stroke-width:3;stroke-miterlimit:4;stroke-dasharray:none;stroke-opacity:1"
       inkscape:transform-center-x="3.2856048e-06"
       id="g902">
      <path
         sodipodi:nodetypes="czcc"
         id="path900"
         d="m 225.68836,107.8183 c 16.28403,-17.327844 36.62905,-57.343433 33.61071,-61.820783 -3.01834,-4.47735 -47.59853,6.047989 -65.50416,15.989619 9.26181,8.159475 25.22323,29.287433 31.89345,45.831164 z"
         style="color:#000000;font-style:normal;font-variant:normal;font-weight:normal;font-stretch:normal;font-size:medium;line-height:normal;font-family:sans-serif;font-variant-ligatures:normal;font-variant-position:normal;font-variant-caps:normal;font-variant-numeric:normal;font-variant-alternates:normal;font-variant-east-asian:normal;font-feature-settings:normal;font-variation-settings:normal;text-indent:0;text-align:start;text-decoration:none;text-decoration-line:none;text-decoration-style:solid;text-decoration-color:#000000;letter-spacing:normal;word-spacing:normal;text-transform:none;writing-mode:lr-tb;direction:ltr;text-orientation:mixed;dominant-baseline:auto;baseline-shift:baseline;text-anchor:start;white-space:normal;shape-padding:0;shape-margin:0;inline-size:0;clip-rule:nonzero;display:inline;overflow:visible;visibility:visible;isolation:auto;mix-blend-mode:normal;color-interpolation:sRGB;color-interpolation-filters:linearRGB;solid-color:#000000;solid-opacity:1;vector-effect:none;fill:#008000;fill-opacity:1;fill-rule:nonzero;stroke:#fffffe;stroke-width:3;stroke-linecap:butt;stroke-linejoin:miter;stroke-miterlimit:4;stroke-dasharray:none;stroke-dashoffset:0;stroke-opacity:1;color-rendering:auto;image-rendering:auto;shape-rendering:auto;text-rendering:auto;enable-background:accumulate;stop-color:#000000;stop-opacity:1" />
    </g>
    <path
       sodipodi:open="true"
       d="m -117.46402,95.122589 a 5.8715286,5.7231145 0 0 1 -5.42794,5.706761 5.8715286,5.7231145 0 0 1 -6.24809,-4.84449 5.8715286,5.7231145 0 0 1 4.48388,-6.438743 5.8715286,5.7231145 0 0 1 6.92558,3.871615"
       sodipodi:arc-type="arc"
       sodipodi:end="5.9807041"
       sodipodi:start="0"
       sodipodi:ry="5.7231145"
       sodipodi:rx="5.8715286"
       sodipodi:cy="95.122589"
       sodipodi:cx="-123.33555"
       sodipodi:type="arc"
       id="path904"
       style="opacity:1;fill:#008000;stroke:none;stroke-width:5.54692;stroke-miterlimit:4;stroke-dasharray:none;stroke-opacity:1" />
    <path
       d="m -174.30176,-177.19527 a 71.087204,71.087204 0 0 0 -71.0122,71.09282 71.087204,71.087204 0 0 0 4.2385,24.172687 c 11.64361,36.603542 47.51607,90.2187746 66.84864,90.2187825 19.33004,0 55.19553,-53.6011115 66.84398,-90.2043125 a 71.087204,71.087204 0 0 0 4.24315,-24.192837 h -0.83819 c -6.5e-4,-0.004 -0.001,-0.007 -0.002,-0.0109 h 0.84026 a 71.087204,71.087204 0 0 0 -71.0954,-71.07628 71.087204,71.087204 0 0 0 -0.0667,0 z m 0.0419,35.99574 a 35.091825,35.091825 0 0 1 0.0331,0 35.091825,35.091825 0 0 1 35.09191,35.0914 35.091825,35.091825 0 0 1 -35.09191,35.091913 35.091825,35.091825 0 0 1 -35.09192,-35.091913 35.091825,35.091825 0 0 1 35.05884,-35.0914 z"
       style="fill:#00ff00;fill-rule:evenodd;stroke-width:0.264583"
       id="path3568" />
    <path
       sodipodi:nodetypes="ssczss"
       d="m -186.46486,-127.48574 c 3.22205,-0.24905 11.97387,20.58473 15.63525,20.49868 4.38265,-0.10301 26.06125,-30.70098 80.150251,-53.14319 -46.052191,39.84994 -68.619731,84.16912 -79.828311,84.10622 -11.20858,-0.0629 -34.00126,-23.614899 -34.15158,-33.03423 -0.10153,-6.36525 14.97028,-18.17826 18.19439,-18.42748 z"
       style="opacity:1;mix-blend-mode:multiply;fill:#008000;fill-opacity:1;stroke:#ffffff;stroke-opacity:0"
       id="path3570" />
    <path
       style="color:#000000;font-style:normal;font-variant:normal;font-weight:normal;font-stretch:normal;font-size:medium;line-height:normal;font-family:sans-serif;font-variant-ligatures:normal;font-variant-position:normal;font-variant-caps:normal;font-variant-numeric:normal;font-variant-alternates:normal;font-variant-east-asian:normal;font-feature-settings:normal;font-variation-settings:normal;text-indent:0;text-align:start;text-decoration:none;text-decoration-line:none;text-decoration-style:solid;text-decoration-color:#000000;letter-spacing:normal;word-spacing:normal;text-transform:none;writing-mode:lr-tb;direction:ltr;text-orientation:mixed;dominant-baseline:auto;baseline-shift:baseline;text-anchor:start;white-space:normal;shape-padding:0;shape-margin:0;inline-size:0;clip-rule:nonzero;display:inline;overflow:visible;visibility:visible;isolation:auto;mix-blend-mode:normal;color-interpolation:sRGB;color-interpolation-filters:linearRGB;solid-color:#000000;solid-opacity:1;vector-effect:none;fill:#008000;fill-opacity:1;fill-rule:nonzero;stroke:none;stroke-width:3;stroke-linecap:butt;stroke-linejoin:miter;stroke-miterlimit:4;stroke-dasharray:none;stroke-dashoffset:0;stroke-opacity:1;color-rendering:auto;image-rendering:auto;shape-rendering:auto;text-rendering:auto;enable-background:accumulate;stop-color:#000000"
       d="m -107.97913,-120.05754 c 16.28403,-17.32785 29.7519,-39.60284 26.73356,-44.08019 -3.01834,-4.47735 -34.3042,-2.06854 -52.20983,7.87309 10.55952,7.44124 21.55649,19.56932 25.47627,36.2071 z"
       id="path3572"
       sodipodi:nodetypes="czcc" />
    <path
       id="path12"
       style="fill:#bbe441;fill-opacity:1;fill-rule:evenodd;stroke-width:0.264583"
       d="m 124.92504,47.441126 a 71.087204,71.087204 0 0 0 -71.012209,71.092824 71.087204,71.087204 0 0 0 4.238501,24.17269 c 11.643608,36.60355 47.516058,90.21878 66.848638,90.21879 19.33003,0 55.19553,-53.60112 66.84397,-90.20432 a 71.087204,71.087204 0 0 0 4.24315,-24.19285 h -0.83819 c -5.3e-4,-0.004 -0.001,-0.007 -0.002,-0.0108 h 0.84026 a 71.087204,71.087204 0 0 0 -1.11518,-12.53 c -0.39074,0.43013 -0.78052,0.8612 -1.17408,1.2883 -1.19238,2.00583 -4.68593,2.03314 -5.66581,-0.18346 -1.17004,-4.43189 -2.51296,-8.855526 -4.57801,-12.965086 -8.24292,8.972056 -16.00482,18.392986 -23.63732,27.902176 a 35.091825,35.091825 0 0 1 -34.91667,31.59084 35.091825,35.091825 0 0 1 -35.091917,-35.09193 35.091825,35.091825 0 0 1 35.058847,-35.0914 35.091825,35.091825 0 0 1 0.0331,0 35.091825,35.091825 0 0 1 25.38397,10.861874 c 7.02586,-5.589482 14.34865,-10.799252 22.01158,-15.487947 -2.6781,-2.713566 -5.55572,-5.080915 -8.65426,-7.335985 -1.92127,-0.80727 -2.81693,-3.608504 -1.34772,-5.220354 2.00881,-1.497436 4.29536,-2.578602 6.59443,-3.569292 a 71.087204,71.087204 0 0 0 -43.99627,-15.24403 71.087204,71.087204 0 0 0 -0.0667,0 z" />
    <path
       id="rect86"
       style="mix-blend-mode:normal;fill:#f6fbe9;fill-opacity:1;stroke:none;stroke-width:1;stroke-opacity:0"
       d="m 208.14114,58.338136 c -11.42514,-0.07587 -30.05939,3.198625 -42.36951,10.033495 4.24299,2.990011 8.55523,6.73836 12.45195,11.230321 -32.21957,19.010102 -46.37838,37.966258 -49.8264,38.047298 -3.66138,0.0861 -12.41318,-20.747556 -15.63523,-20.498496 -3.22411,0.24921 -18.295767,12.062046 -18.194237,18.427306 0.15032,9.41933 22.942817,32.97127 34.151407,33.03417 9.03292,0.0507 25.44707,-28.72365 55.5811,-60.753418 3.03981,4.940472 5.48584,10.516332 6.94737,16.719908 16.28403,-17.327841 29.75211,-39.602643 26.73377,-44.079994 -0.94323,-1.399172 -4.64698,-2.126107 -9.84022,-2.16059 z" />
  </g>
</svg>
